{
	"asset":{
		"version":"2.0",
		"generator":"Created using the official Cinema 4D glTF Exporter 1.000x284978"
	},
	"scenes":[{
		"nodes":[0]
	}],
	"nodes":[{
		"name":"Extrude",
		"mesh":0,
		"translation":[76.17927551269531,
		68.87368774414063,
		0.0],
		"rotation":[0.0,
		0.0,
		0.0,
		-1.0],
		"scale":[1.0,
		1.0,
		1.0]
	}],
	"meshes":[{
		"name":"Extrude",
		"primitives":[{
			"indices":0,
			"attributes":{
				"POSITION":1,
				"NORMAL":2,
				"TEXCOORD_0":3
			}
		}]
	}],
	"accessors":[{
		"type":"SCALAR",
		"bufferView":0,
		"componentType":5123,
		"count":1500,
		"byteOffset":0,
		"min":[0],
		"max":[547]
	},
	{
		"type":"VEC3",
		"bufferView":1,
		"componentType":5126,
		"count":548,
		"byteOffset":0,
		"min":[-65.25321197509766,
		-57.941104888916019,
		0.0],
		"max":[216.99537658691407,
		202.36656188964845,
		25.0]
	},
	{
		"type":"VEC3",
		"bufferView":1,
		"componentType":5126,
		"count":548,
		"byteOffset":12,
		"min":[-0.9999637007713318,
		-1.0,
		-1.0],
		"max":[0.9999992847442627,
		1.0,
		1.0]
	},
	{
		"type":"VEC2",
		"bufferView":1,
		"componentType":5126,
		"count":548,
		"byteOffset":24,
		"min":[0.0,
		0.0],
		"max":[1.0,
		1.0]
	}],
	"buffers":[{
		"uri":"data:application/octet-stream;base64,",
		"byteLength":20536
	}],
	"bufferViews":[{
		"buffer":0,
		"byteOffset":0,
		"byteLength":3000,
		"target":34963
	},
	{
		"buffer":0,
		"byteOffset":3000,
		"byteLength":17536,
		"target":34962,
		"byteStride":32
	}]
}